<svg width="31" height="30" viewBox="0 0 31 30" fill="none" xmlns="http://www.w3.org/2000/svg">
<path d="M30.2068 15.0859C30.2068 6.80174 23.491 0.0859375 15.2068 0.0859375C6.92259 0.0859375 0.206787 6.80174 0.206787 15.0859C0.206787 22.1203 5.04999 28.0231 11.5834 29.6443V19.6699H8.49039V15.0859H11.5834V13.1107C11.5834 8.00534 13.894 5.63894 18.9064 5.63894C19.8568 5.63894 21.4966 5.82554 22.1674 6.01154V10.1665C21.8134 10.1293 21.1984 10.1107 20.4346 10.1107C17.9752 10.1107 17.0248 11.0425 17.0248 13.4647V15.0859H21.9244L21.0826 19.6699H17.0248V29.9761C24.4522 29.0791 30.2074 22.7551 30.2074 15.0859H30.2068Z" fill="#0866FF"/>
</svg>
